# xmcd
# 
# Track frame offsets:
#     150
#     20140
#     36605
#     56372
#     80945
#     100027
#     114377
#     136112
#     167565
# 
# Disc length: 3905
# 
# Revision: 1
# Processed by: cddbd v1.5.2PL0 Copyright (c) Steve Scherf et al.
# Submitted via: BonkEnc v1.0.15
# 
DISCID=740f3f09
DTITLE=The Cure b - Faith
DYEAR=1981
DGENRE=
TTITLE0=The Holy Hour
TTITLE1=Primary
TTITLE2=Other Voices
TTITLE3=All Cats Are Grey
TTITLE4=The Funeral Party
TTITLE5=Doubt
TTITLE6=The Drowning Man
TTITLE7=Faith
TTITLE8=Carnage Visors - The Soundtrack
EXTD=
EXTT0=
EXTT1=
EXTT2=
EXTT3=
EXTT4=
EXTT5=
EXTT6=
EXTT7=
EXTT8=
PLAYORDER=
